<svg width="60" height="61" viewBox="0 0 60 61" fill="none" xmlns="http://www.w3.org/2000/svg">
<path d="M56.9999 23.6014V54.1391H15.9372C15.2494 54.1391 14.6931 53.5817 14.6931 52.895V19.3945C14.6931 18.7067 15.2494 18.1504 15.9372 18.1504H31.0245C31.3537 18.1504 31.6699 18.2808 31.9035 18.5144L35.3825 21.9933C35.6161 22.227 35.9323 22.3573 36.2625 22.3573H55.7557C56.4424 22.3574 56.9999 22.9148 56.9999 23.6014Z" fill="#767882"/>
<path d="M37.1782 28.4234C38.8531 28.4234 40.2109 27.0656 40.2109 25.3907C40.2109 23.7157 38.8531 22.3579 37.1782 22.3579C35.5033 22.3579 34.1454 23.7157 34.1454 25.3907C34.1454 27.0656 35.5033 28.4234 37.1782 28.4234Z" fill="#3D3E45"/>
<path d="M26.0456 32.549C26.5932 33.0955 26.2065 34.032 25.4318 34.032H15.8553C15.463 34.032 15.0751 34.0124 14.6927 33.9755V19.3945C14.6927 18.7067 15.249 18.1504 15.9368 18.1504H26.7487C27.2528 19.4552 27.5299 20.8743 27.5299 22.3574C27.5299 25.5812 26.2228 28.4995 24.1106 30.6128L26.0456 32.549Z" fill="#3D3E45"/>
<path d="M44.3121 38.5387L57.0001 54.1392H15.2844C14.91 54.1392 14.5556 53.9705 14.3194 53.6801L3.28136 40.1084C2.62028 39.2955 3.19867 38.0796 4.2464 38.0796H43.3469C43.7215 38.0796 44.0759 38.2482 44.3121 38.5387Z" fill="#B1B3D3"/>
<path d="M47.5532 50.4801H36.5774C36.2381 50.4801 35.9183 50.3216 35.7128 50.0516L32.8999 46.3556C32.6277 45.998 32.8828 45.4834 33.3322 45.4834H44.308C44.6473 45.4834 44.9671 45.6419 45.1727 45.9119L47.9855 49.6078C48.2577 49.9654 48.0027 50.4801 47.5532 50.4801Z" fill="#F8F3F1"/>
<path d="M29.9998 51.2942H25.0141C24.5641 51.2942 24.1993 50.9294 24.1993 50.4794C24.1993 50.0294 24.5641 49.6646 25.0141 49.6646H29.9998C30.4499 49.6646 30.8147 50.0294 30.8147 50.4794C30.8147 50.9294 30.4499 51.2942 29.9998 51.2942Z" fill="#F8F3F1"/>
<path d="M28.1806 48.5916H26.0644C25.6144 48.5916 25.2496 48.2268 25.2496 47.7768C25.2496 47.3267 25.6144 46.9619 26.0644 46.9619H28.1806C28.6307 46.9619 28.9955 47.3267 28.9955 47.7768C28.9956 48.2268 28.6308 48.5916 28.1806 48.5916Z" fill="#F8F3F1"/>
<path d="M27.5306 18.5355C27.5306 12.0878 22.3037 6.86084 15.8561 6.86084C9.41443 6.86084 4.1814 12.0939 4.1814 18.5356C4.1815 24.9833 9.40831 30.2101 15.856 30.2101H25.4326C26.2068 30.2101 26.5946 29.274 26.0471 28.7265L24.1113 26.7906C26.224 24.6781 27.5306 21.7593 27.5306 18.5355Z" fill="white"/>
<path d="M27.5306 18.5355C27.5306 12.0878 22.3037 6.86084 15.8561 6.86084C9.41443 6.86084 4.1814 12.0939 4.1814 18.5356C4.1815 24.9833 9.40831 30.2101 15.856 30.2101H25.4326C26.2068 30.2101 26.5946 29.274 26.0471 28.7265L24.1113 26.7906C26.224 24.6781 27.5306 21.7593 27.5306 18.5355Z" fill="#D60000" fill-opacity="0.1"/>
<path d="M26.0462 28.7272C26.5938 29.2747 26.207 30.2103 25.4324 30.2103H21.4948C22.2684 30.2103 22.6563 29.2747 22.1086 28.7272L20.9082 27.5261C20.5089 27.1266 20.4836 26.4889 20.8477 26.057C22.5603 24.0257 23.5928 21.4008 23.5928 18.5356C23.5928 12.7597 19.3978 7.96272 13.888 7.02722C14.4211 6.93578 14.9664 6.88136 15.5213 6.86564C22.0503 6.6817 27.42 11.806 27.5287 18.3367C27.5836 21.639 26.2665 24.6353 24.1111 26.7909L26.0462 28.7272Z" fill="#F7D8D8"/>
<path d="M17.784 18.536L19.6003 16.7196C20.1327 16.1873 20.1327 15.3242 19.6003 14.7919C19.0681 14.2596 18.2049 14.2596 17.6726 14.7919L15.8563 16.6083L14.04 14.7918C13.5077 14.2595 12.6446 14.2595 12.1123 14.7918C11.5799 15.3241 11.5799 16.1872 12.1123 16.7195L13.9287 18.5359L12.1123 20.3523C11.5799 20.8846 11.5799 21.7477 12.1123 22.28C12.3784 22.5462 12.7273 22.6792 13.0762 22.6792C13.4251 22.6792 13.7738 22.5461 14.0401 22.28L15.8564 20.4636L17.6728 22.28C17.939 22.5462 18.2877 22.6792 18.6367 22.6792C18.9855 22.6792 19.3344 22.5461 19.6006 22.28C20.133 21.7477 20.133 20.8846 19.6006 20.3523L17.784 18.536Z" fill="#D60000"/>
<path d="M37.1786 25.855C38.8536 25.855 40.2114 24.4972 40.2114 22.8223C40.2114 21.1474 38.8536 19.7896 37.1786 19.7896C35.5037 19.7896 34.1459 21.1474 34.1459 22.8223C34.1459 24.4972 35.5037 25.855 37.1786 25.855Z" fill="#63D7A4"/>
<path d="M40.2117 22.8219C40.2117 24.4975 38.8534 25.8557 37.1792 25.8557C36.6179 25.8557 36.0913 25.7032 35.6409 25.4357C36.8314 25.1613 37.7184 24.0955 37.7184 22.8219C37.7184 21.5496 36.8328 20.4825 35.6422 20.2081C36.0927 19.942 36.6179 19.7896 37.1792 19.7896C38.8535 19.7894 40.2117 21.1477 40.2117 22.8219Z" fill="#46CB91"/>
<path d="M47.7997 19.186C49.1214 19.186 50.193 18.1145 50.193 16.7927C50.193 15.4709 49.1214 14.3994 47.7997 14.3994C46.4779 14.3994 45.4064 15.4709 45.4064 16.7927C45.4064 18.1145 46.4779 19.186 47.7997 19.186Z" fill="#63D7A4"/>
<path d="M50.1929 16.7925C50.1929 18.1148 49.1211 19.1865 47.7999 19.1865C47.357 19.1865 46.9414 19.0662 46.5859 18.8551C47.5254 18.6386 48.2253 17.7975 48.2253 16.7925C48.2253 15.7884 47.5264 14.9464 46.5869 14.7297C46.9424 14.5198 47.3568 14.3994 47.7998 14.3994C49.1211 14.3994 50.1929 15.4713 50.1929 16.7925Z" fill="#46CB91"/>
<path d="M42.3317 12.4185L42.7725 11.9776C43.0908 11.6593 43.0908 11.1435 42.7725 10.8252C42.4543 10.507 41.9384 10.507 41.6201 10.8252L41.1792 11.266L40.7384 10.8252C40.4202 10.5068 39.9042 10.5068 39.5859 10.8252C39.2676 11.1434 39.2676 11.6593 39.5859 11.9776L40.0268 12.4185L39.5859 12.8593C39.2676 13.1776 39.2676 13.6935 39.5859 14.0118C39.745 14.1709 39.9536 14.2505 40.1621 14.2505C40.3706 14.2505 40.5792 14.1708 40.7382 14.0118L41.1791 13.5709L41.62 14.0118C41.7791 14.1709 41.9876 14.2505 42.1961 14.2505C42.4046 14.2505 42.6133 14.1708 42.7723 14.0118C43.0906 13.6936 43.0906 13.1776 42.7723 12.8593L42.3317 12.4185Z" fill="#C1EFDB"/>
<path d="M9.10124 30.9183C8.78304 30.6001 8.26709 30.6001 7.94878 30.9183L7.18118 31.6859L6.41358 30.9183C6.09538 30.6001 5.57943 30.6001 5.26113 30.9183C4.94282 31.2365 4.94282 31.7525 5.26113 32.0708L6.02873 32.8384L5.26113 33.606C4.94282 33.9242 4.94282 34.4401 5.26113 34.7584C5.42028 34.9176 5.62879 34.9971 5.8373 34.9971C6.04581 34.9971 6.25443 34.9175 6.41348 34.7584L7.18108 33.9908L7.94868 34.7584C8.10783 34.9176 8.31634 34.9971 8.52485 34.9971C8.73336 34.9971 8.94198 34.9175 9.10103 34.7584C9.41933 34.4402 9.41933 33.9243 9.10103 33.606L8.33343 32.8384L9.10103 32.0708C9.41943 31.7525 9.41943 31.2365 9.10124 30.9183Z" fill="#C1EFDB"/>
</svg>
