<?xml version="1.0" encoding="utf-8"?><!-- Uploaded to: SVG Repo, www.svgrepo.com, Generator: SVG Repo Mixer Tools -->
<svg width="800px" height="800px" viewBox="0 0 24 24" id="_24x24_On_Light_Session-Join" data-name="24x24/On Light/Session-Join" xmlns="http://www.w3.org/2000/svg">
  <rect id="view-box" width="24" height="24" fill="none"/>
  <path id="Shape" d="M5.75,17.5a.75.75,0,0,1,0-1.5h8.8A1.363,1.363,0,0,0,16,14.75v-12A1.363,1.363,0,0,0,14.55,1.5H5.75a.75.75,0,0,1,0-1.5h8.8A2.853,2.853,0,0,1,17.5,2.75v12A2.853,2.853,0,0,1,14.55,17.5ZM7.22,13.28a.75.75,0,0,1,0-1.061L9.939,9.5H.75A.75.75,0,0,1,.75,8H9.94L7.22,5.28A.75.75,0,0,1,8.28,4.22l4,4,.013.013.005.006.007.008.007.008,0,.005.008.009,0,0,.008.01,0,0,.008.011,0,0,.008.011,0,0,.008.011,0,0,.007.011,0,.005.006.01,0,.007,0,.008,0,.009,0,.006.006.011,0,0,.008.015h0a.751.751,0,0,1-.157.878L8.28,13.28a.75.75,0,0,1-1.06,0Z" transform="translate(3.25 3.25)" fill="#141124"/>
</svg>